<?xml version="1.0" encoding="UTF-8"?>
<svg xmlns="http://www.w3.org/2000/svg" viewBox="0 0 35.454784 23.227926" width="36" height="24">
  <g transform="translate(-40.844151,-51.076127)">
    <path fill="#3478b5" fill-opacity="1" d="m 56.895684,74.253187 c -1.558117,-0.20113 -3.02405,-0.61622 -5.07369,-1.43665 -2.387405,-0.95562 -3.927475,-1.34687 -5.872326,-1.4918 -0.911019,-0.0679 -0.964971,-0.0826 -0.704679,-0.19129 1.54196,-0.64431 4.387875,-0.58097 6.61892,0.14731 0.821634,0.26822 0.757946,0.24026 3.340545,1.46621 1.085205,0.51515 2.247926,1.0401 2.583819,1.16656 0.335904,0.12646 0.650889,0.26913 0.699985,0.31706 0.08745,0.0855 -0.987716,0.10066 -1.592574,0.0227 z m 6.577006,-0.44414 c -1.153877,-0.19422 -2.520441,-0.57261 -3.711316,-1.0276 -1.037988,-0.39659 -1.45922,-0.57995 -3.006626,-1.30881 -4.026081,-1.89636 -6.038933,-2.43499 -9.11385,-2.43885 -2.209181,-0.002 -4.051708,0.36395 -6.038499,1.20187 -0.974584,0.41104 -0.998478,0.36288 -0.136313,-0.27472 4.378775,-3.23826 9.072999,-3.21662 16.125619,0.0744 6.042452,2.81957 9.226498,3.31329 13.060043,2.02507 1.012626,-0.34027 1.03945,-0.30374 0.183003,0.2493 -2.053223,1.32588 -4.921953,1.91014 -7.362061,1.49942 z m 1.785177,-2.93967 c -1.35055,-0.18079 -3.46573,-0.87974 -5.794667,-1.91481 -2.337768,-1.039 -4.569748,-1.95293 -4.939932,-2.02276 -0.49879,-0.0941 -0.347434,-0.19584 0.234886,-0.15788 1.800262,0.11734 3.396485,0.44701 5.792195,1.19625 2.23159,0.69792 3.169812,0.95582 4.096801,1.12618 3.543259,0.65116 6.885324,0.0981 9.995988,-1.654 0.789507,-0.44471 0.882201,-0.39763 0.333439,0.16936 -2.439043,2.52005 -6.089136,3.74354 -9.71871,3.25766 z m 2.67778,-2.78797 c 0,-0.0193 0.111696,-0.24131 0.248203,-0.49327 0.609496,-1.12503 3.554923,-6.460358 4.195049,-7.598886 1.376055,-2.447478 1.408402,-2.520953 1.076737,-2.445092 -0.116276,0.02663 -0.824473,0.153987 -1.573787,0.283082 -6.030641,1.039051 -14.698935,3.520487 -23.865122,6.831779 -2.173354,0.785124 -2.019013,0.673352 -1.845788,1.336704 0.104082,0.398582 0.111663,0.544583 0.02971,0.572133 -0.3147,0.10576 -1.233842,0.31527 -1.261596,0.28752 -0.09548,-0.0954 -0.663314,-2.269599 -0.606794,-2.323299 0.08482,-0.08057 1.629126,-0.679965 2.150035,-0.834473 l 0.391685,-0.116177 0.240238,-0.997449 c 0.132132,-0.548606 0.289781,-1.265426 0.350334,-1.592952 0.07199,-0.389371 0.162217,-0.61388 0.26067,-0.648593 0.08282,-0.02919 1.144174,-0.444502 2.35857,-0.922896 1.214397,-0.478383 2.440536,-0.953814 2.724761,-1.056519 0.284224,-0.102651 1.150979,-0.428368 1.926126,-0.7237 3.284734,-1.251521 6.766636,-2.42393 7.720961,-2.599767 0.640349,-0.117986 0.682462,-0.155972 0.428133,-0.38613 -0.923682,-0.835916 -2.713924,-0.608222 -6.042783,0.768566 -0.124944,0.05171 -1.072787,0.41808 -2.106311,0.814231 -1.033537,0.396152 -2.721703,1.053379 -3.751488,1.460484 -1.029786,0.407116 -1.882125,0.730092 -1.894085,0.71774 -0.01196,-0.01232 0.06211,-0.381847 0.164602,-0.821101 l 0.186349,-0.79864 3.023136,-1.196323 c 1.662732,-0.657981 3.731337,-1.457864 4.596927,-1.777522 1.718105,-0.634488 1.758078,-0.669922 1.179141,-1.045322 -0.783368,-0.507935 -1.202047,-0.424094 -4.528431,0.906839 -2.585564,1.034524 -2.400869,1.02609 -2.271319,0.103649 0.118894,-0.846547 -0.11579,-0.679377 2.316397,-1.649948 3.681518,-1.469117 4.993087,-1.423008 6.059029,0.213013 l 0.27337,0.419567 0.951371,-0.04228 c 1.484587,-0.06603 2.478264,0.364414 3.307635,1.432796 0.389836,0.502164 0.421321,0.521495 0.849366,0.521495 1.308016,0 2.743311,0.799284 3.61831,2.014961 0.129739,0.180253 0.151678,0.179166 1.575728,-0.0779 0.794289,-0.1434 2.014961,-0.342596 2.712593,-0.442661 0.697631,-0.100097 1.689178,-0.24322 2.203449,-0.318115 0.994051,-0.144765 1.08809,-0.132669 0.931986,0.119928 -0.09721,0.157249 -0.403077,0.709274 -0.986852,1.780918 -0.819923,1.505128 -2.015847,3.671622 -3.019133,5.469353 -0.246249,0.441262 -0.638238,1.161677 -0.871072,1.60092 -0.232833,0.439253 -0.512284,0.946622 -0.621007,1.127486 -0.108752,0.180875 -0.388993,0.688241 -0.622846,1.127481 -0.469404,0.8817 -2.182176,1.66533 -2.182176,0.99839 z M 50.47356,62.286194 c 1.051697,-0.364491 2.884635,-0.980813 4.07319,-1.369607 4.673165,-1.528677 8.213071,-2.557408 11.274861,-3.276591 1.766547,-0.41494 1.651979,-0.35305 1.311413,-0.708519 -1.543469,-1.611041 -3.869561,-1.073742 -16.579452,3.829637 -1.882175,0.726129 -1.751778,0.639803 -1.871017,1.238625 -0.05765,0.289496 -0.130269,0.621483 -0.161384,0.73776 -0.07251,0.270963 -0.250057,0.312001 1.952389,-0.451305 z m 18.072174,0.555376 -0.367612,-0.765037 -1.084293,0.05981 c -0.596371,0.03296 -2.099035,0.163397 -3.339265,0.289984 -2.400539,0.245017 -3.912334,0.362238 -3.758295,0.291426 0.146695,-0.06747 3.430747,-1.001487 5.919302,-1.683572 2.122947,-0.581876 3.899227,-1.013873 3.899227,-0.94831 0,0.0617 -0.478161,2.282839 -0.621404,2.886499 -0.189222,0.797364 -0.202971,0.79459 -0.64766,-0.130826 z"/>
  </g>
</svg>
